<?xml version="1.0" encoding="ISO-8859-1"?>
<!DOCTYPE svg PUBLIC "-//W3C//DTD SVG 1.0//EN" "http://www.w3.org/TR/2001/REC-SVG-20010904/DTD/svg10.dtd">
<!-- generated by Grace-5.1.23 -->
<svg xml:space="preserve" width="11.0000in" height="8.5000in" viewBox="0.0000 0.0000 792.0000 612.0000">
 <g transform="translate(0,612.0000) scale(1,-1)">
  <g style="fill:#FFFFFF; fill-rule:nonzero">
   <path  d="M0.0000,0.0000L0.0000,612.0000L792.0000,612.0000L792.0000,0.0000z"/>
  </g>
  <g style="fill:none; stroke:#000000; stroke-width:  2.7540; stroke-linecap:butt; stroke-linejoin:miter; stroke-dasharray:none">
   <path d="M111.4715,550.8612L111.9960,544.0097L112.5570,536.9725L113.1180,530.2165L113.6790,523.7317L114.2400,517.5085L114.8010,511.5375L115.3620,505.8096L115.9230,500.3163L116.4840,495.0491
            L117.0450,490.0000L117.6060,485.1611L118.1670,480.5249L118.7280,476.0843L119.2890,471.8322L119.8500,467.7618L120.4110,463.8667L120.9720,460.1406L121.5330,456.5774L122.0940,453.1713
            L122.6550,449.9166L123.2160,446.8080L123.7770,443.8401L124.3380,441.0079L124.8990,438.3066L125.4600,435.7313L126.0210,433.2776L126.5820,430.9411L127.1430,428.7175L127.7040,426.6028
            L128.2650,424.5930L128.8260,422.6842L129.3870,420.8729L129.9480,419.1554L130.5090,417.5284L131.0700,415.9885L131.6310,414.5325L132.1920,413.1575L132.7530,411.8603L133.3140,410.6381
            L133.8750,409.4883L134.4360,408.4080L134.9970,407.3947L135.5580,406.4459L136.1190,405.5592L136.6800,404.7323L137.2410,403.9629L137.8020,403.2490L138.3630,402.5883L138.9240,401.9789
            L139.4850,401.4188L140.0460,400.9061L140.6070,400.4391L141.1680,400.0160L141.7290,399.6350L142.2900,399.2946L142.8510,398.9932L143.4120,398.7293L143.9730,398.5013L144.5340,398.3079
            L145.0950,398.1477L145.6560,398.0194L146.2170,397.9217L146.7780,397.8533L147.3390,397.8131L147.9000,397.8000L148.4610,397.8941L149.0220,398.1689L149.5830,398.6136L150.1440,399.2177
            L150.7050,399.9710L151.2660,400.8640L151.8270,401.8873L152.3880,403.0321L152.9490,404.2896L153.5100,405.6517L154.0710,407.1105L154.6320,408.6584L155.1930,410.2883L155.7540,411.9930
            L156.3150,413.7661L156.8760,415.6011L157.4370,417.4920L157.9980,419.4329L158.5590,421.4184L159.1200,423.4432L159.6810,425.5022L160.2420,427.5907L160.8030,429.7041L161.3640,431.8380
            L161.9250,433.9884L162.4860,436.1513L163.0470,438.3230L163.6080,440.5001L164.1690,442.6792L164.7300,444.8572L165.2910,447.0312L165.8520,449.1983L166.4130,451.3559L166.9740,453.5016
            L167.5350,455.6330L168.0960,457.7481L168.6570,459.8447L169.2180,461.9211L169.7790,463.9754L170.3400,466.0060L170.9010,468.0115L171.4620,469.9903L172.0230,471.9414L172.5840,473.8635
            L173.1450,475.7555L173.7060,477.6165L174.2670,479.4456L174.8280,481.2420L175.3890,483.0051L175.9500,484.7342L176.5110,486.4288L177.0720,488.0884L177.6330,489.7127L178.1940,491.3014
            L178.7550,492.8542L179.3160,494.3710L179.8770,495.8515L180.4380,497.2958L180.9990,498.7037L181.5600,500.0755L182.1210,501.4111L182.6820,502.7106L183.2430,503.9743L183.8040,505.2024
            L184.3650,506.3950L184.9260,507.5525L185.4870,508.6753L186.0480,509.7636L186.6090,510.8178L187.1700,511.8384L187.7310,512.8258L188.2920,513.7803L188.8530,514.7026L189.4140,515.5931
            L189.9750,516.4523L190.5360,517.2808L191.0970,518.0791L191.6580,518.8477L192.2190,519.5873L192.7800,520.2983L193.3410,520.9815L193.9020,521.6374L194.4630,522.2666L195.0240,522.8698
            L195.5850,523.4475L196.1460,524.0004L196.7070,524.5291L197.2680,525.0343L197.8290,525.5165L198.3900,525.9765L198.9510,526.4148L199.5120,526.8320L200.0730,527.2288L200.6340,527.6059
            L201.1950,527.9638L201.7560,528.3031L202.3170,528.6245L202.8780,528.9286L203.4390,529.2160L204.0000,529.4872L204.5610,529.7429L205.1220,529.9837L205.6830,530.2100L206.2440,530.4226
            L206.8050,530.6219L207.3660,530.8084L207.9270,530.9828L208.4880,531.1455L209.0490,531.2971L209.6100,531.4381L210.1710,531.5690L210.7320,531.6902L211.2930,531.8023L211.8540,531.9057
            L212.4150,532.0009L212.9760,532.0882L213.5370,532.1682L214.0980,532.2413L214.6590,532.3079L215.2200,532.3683L215.7810,532.4230L216.3420,532.4724L216.9030,532.5167L217.4640,532.5564
            L218.0250,532.5917L218.5860,532.6231L219.1470,532.6508L219.7080,532.6751L220.2690,532.6963L220.8300,532.7147L221.3910,532.7305L221.9520,532.7440L222.5130,532.7555L223.0740,532.7650
            L223.6350,532.7730L224.1960,532.7795L224.7570,532.7848L225.3180,532.7889L225.8790,532.7922L226.4400,532.7947L227.0010,532.7965L227.5620,532.7978L228.1230,532.7987L228.6840,532.7993
            L229.2450,532.7997L229.8060,532.7999L230.3670,532.8000L230.9280,532.8000L231.4890,532.8000L232.0500,532.8000L232.6110,532.7970L233.1720,532.7879L233.7330,532.7727L234.2940,532.7515
            L234.8550,532.7242L235.4160,532.6909L235.9770,532.6515L236.5380,532.6060L237.0990,532.5545L237.6600,532.4968L238.2210,532.4330L238.7820,532.3631L239.3430,532.2870L239.9040,532.2046
            L240.4650,532.1160L241.0260,532.0210L241.5870,531.9196L242.1480,531.8116L242.7090,531.6970L243.2700,531.5756L243.8310,531.4472L244.3920,531.3116L244.9530,531.1687L245.5140,531.0181
            L246.0750,530.8596L246.6360,530.6930L247.1970,530.5178L247.7580,530.3336L248.3190,530.1401L248.8800,529.9368L249.4410,529.7232L250.0020,529.4988L250.5630,529.2629L251.1240,529.0150
            L251.6850,528.7545L252.2460,528.4805L252.8070,528.1925L253.3680,527.8895L253.9290,527.5709L254.4900,527.2359L255.0510,526.8835L255.6120,526.5130L256.1730,526.1235L256.7340,525.7142
            L257.2950,525.2843L257.8560,524.8330L258.4170,524.3596L258.9780,523.8634L259.5390,523.3438L260.1000,522.8004L260.6610,522.2328L261.2220,521.6407L261.7830,521.0240L262.3440,520.3828
            L262.9050,519.7173L263.4660,519.0280L264.0270,518.3156L264.5880,517.5808L265.1490,516.8248L265.7100,516.0488L266.2710,515.2544L266.8320,514.4433L267.3930,513.6174L267.9540,512.7789
            L268.5150,511.9300L269.0760,511.0731L269.6370,510.2107L270.1980,509.3454L270.7590,508.4799L271.3200,507.6167L271.8810,506.7586L272.4420,505.9081L273.0030,505.0676L273.5640,504.2396
            L274.1250,503.4262L274.6860,502.6295L275.2470,501.8513L275.8080,501.0933L276.3690,500.3569L276.9300,499.6435L277.4910,498.9539L278.0520,498.2891L278.6130,497.6496L279.1740,497.0358
            L279.7350,496.4480L280.2960,495.8863L280.8570,495.3504L281.4180,494.8403L281.9790,494.3554L282.5400,493.8954L283.1010,493.4597L283.6620,493.0475L284.2230,492.6582L284.7840,492.2910
            L285.3450,491.9452L285.9060,491.6197L286.4670,491.3139L287.0280,491.0269L287.5890,490.7577L288.1500,490.5055L288.7110,490.2694L289.2720,490.0487L289.8330,489.8424L290.3940,489.6499
            L290.9550,489.4703L291.5160,489.3029L292.0770,489.1470L292.6380,489.0019L293.1990,488.8670L293.7600,488.7416L294.3210,488.6251L294.8820,488.5170L295.4430,488.4168L296.0040,488.3239
            L296.5650,488.2379L297.1260,488.1583L297.6870,488.0847L298.2480,488.0167L298.8090,487.9539L299.3700,487.8961L299.9310,487.8428L300.4920,487.7937L301.0530,487.7486L301.6140,487.7071
            L302.1750,487.6692L302.7360,487.6344L303.2970,487.6025L303.8580,487.5735L304.4190,487.5470L304.9800,487.5229L305.5410,487.5010L306.1020,487.4812L306.6630,487.4633L307.2240,487.4473
            L307.7850,487.4328L308.3460,487.4199L308.9070,487.4084L309.4680,487.3983L310.0290,487.3893L310.5900,487.3815L311.1510,487.3748L311.7120,487.3690L312.2730,487.3641L312.8340,487.3601
            L313.3950,487.3568L313.9560,487.3542L314.5170,487.3523L315.0780,487.3510L315.6390,487.3502L316.2000,487.3500L316.7610,487.3502L317.3220,487.3509L317.8830,487.3519L318.4440,487.3534
            L319.0050,487.3551L319.5660,487.3572L320.1270,487.3595L320.6880,487.3621L321.2490,487.3649L321.8100,487.3680L322.3710,487.3712L322.9320,487.3746L323.4930,487.3781L324.0540,487.3818
            L324.6150,487.3856L325.1760,487.3895L325.7370,487.3935L326.2980,487.3975L326.8590,487.4017L327.4200,487.4059L327.9810,487.4102L328.5420,487.4145L329.1030,487.4188L329.6640,487.4232
            L330.2250,487.4276L330.7860,487.4320L331.3470,487.4364L331.9080,487.4409L332.4690,487.4453L333.0300,487.4497L333.5910,487.4541L334.1520,487.4585L334.7130,487.4629L335.2740,487.4672
            L335.8350,487.4716L336.3960,487.4759L336.9570,487.4802L337.5180,487.4844L338.0790,487.4886L338.6400,487.4928L339.2010,487.4969L339.7620,487.5010L340.3230,487.5051L340.8840,487.5091
            L341.4450,487.5131L342.0060,487.5171L342.5670,487.5210L343.1280,487.5248L343.6890,487.5286L344.2500,487.5324L344.8110,487.5361L345.3720,487.5398L345.9330,487.5434L346.4940,487.5470
            L347.0550,487.5505L347.6160,487.5540L348.1770,487.5575L348.7380,487.5609L349.2990,487.5642L349.8600,487.5675L350.4210,487.5708L350.9820,487.5740L351.5430,487.5772L352.1040,487.5803
            L352.6650,487.5834L353.2260,487.5864L353.7870,487.5894L354.3480,487.5924L354.9090,487.5953L355.4700,487.5982L356.0310,487.6010L356.5920,487.6038L357.1530,487.6065L357.7140,487.6092
            L358.2750,487.6119L358.8360,487.6145L359.3970,487.6171L359.9580,487.6196L360.5190,487.6221L361.0800,487.6246L361.6410,487.6270L362.2020,487.6294L362.7630,487.6318L363.3240,487.6341
            L363.8850,487.6364L364.4460,487.6386L365.0070,487.6409L365.5680,487.6430L366.1290,487.6452L366.6900,487.6473L367.2510,487.6494L367.8120,487.6514L368.3730,487.6535L368.9340,487.6554
            L369.4950,487.6574L370.0560,487.6593L370.6170,487.6612L371.1780,487.6631L371.7390,487.6649L372.3000,487.6667L372.8610,487.6685L373.4220,487.6703L373.9830,487.6720L374.5440,487.6737
            L375.1050,487.6754L375.6660,487.6770L376.2270,487.6787L376.7880,487.6803L377.3490,487.6818L377.9100,487.6834L378.4710,487.6849L379.0320,487.6864L379.5930,487.6879L380.1540,487.6894
            L380.7150,487.6908L381.2760,487.6922L381.8370,487.6936L382.3980,487.6950L382.9590,487.6963L383.5200,487.6977L384.0810,487.6990L384.6420,487.7003L385.2030,487.7015L385.7640,487.7028
            L386.3250,487.7040L386.8860,487.7052L387.4470,487.7064L388.0080,487.7076L388.5690,487.7088L389.1300,487.7099L389.6910,487.7110L390.2520,487.7122L390.8130,487.7132L391.3740,487.7143
            L391.9350,487.7154L392.4960,487.7164L393.0570,487.7175L393.6180,487.7185L394.1790,487.7195L394.7400,487.7205L395.3010,487.7214L395.8620,487.7224L396.4230,487.7233L396.9840,487.7243
            L397.5450,487.7252L398.1060,487.7261L398.6670,487.7270L399.2280,487.7279L399.7890,487.7287L400.3500,487.7296L400.9110,487.7304L401.4720,487.7312L402.0330,487.7321L402.5940,487.7329
            L403.1550,487.7337L403.7160,487.7344L404.2770,487.7352L404.8380,487.7360L405.3990,487.7367L405.9600,487.7374L406.5210,487.7382L407.0820,487.7389L407.6430,487.7396L408.2040,487.7403
            L408.7650,487.7410L409.3260,487.7417L409.8870,487.7423L410.4480,487.7430L411.0090,487.7436L411.5700,487.7443L412.1310,487.7449L412.6920,487.7455L413.2530,487.7462L413.8140,487.7468
            L414.3750,487.7474L414.9360,487.7480L415.4970,487.7485L416.0580,487.7491L416.6190,487.7497L417.1800,487.7502L417.7410,487.7508L418.3020,487.7513L418.8630,487.7519L419.4240,487.7524
            L419.9850,487.7529L420.5460,487.7534L421.1070,487.7539L421.6680,487.7545L422.2290,487.7549L422.7900,487.7554L423.3510,487.7559L423.9120,487.7564L424.4730,487.7569L425.0340,487.7573
            L425.5950,487.7578L426.1560,487.7582L426.7170,487.7587L427.2780,487.7591L427.8390,487.7596L428.4000,487.7600L428.4612,487.7600"/>
  </g>
  <g style="fill:none; stroke:#000000; stroke-width:  0.9180; stroke-linecap:butt; stroke-linejoin:miter; stroke-dasharray:none">
   <path d="M91.8000,397.8000L428.4000,397.8000"/>
   <path d="M91.8000,550.8000L428.4000,550.8000"/>
  </g>
  <g style="fill:none; stroke:#000000; stroke-width:  1.8360; stroke-linecap:butt; stroke-linejoin:miter; stroke-dasharray:none">
   <path d="M147.9000,397.8000L147.9000,403.9200"/>
   <path d="M147.9000,550.8000L147.9000,544.6800"/>
   <path d="M260.1000,397.8000L260.1000,403.9200"/>
   <path d="M260.1000,550.8000L260.1000,544.6800"/>
   <path d="M372.3000,397.8000L372.3000,403.9200"/>
   <path d="M372.3000,550.8000L372.3000,544.6800"/>
   <path d="M91.8000,397.8000L91.8000,410.0400"/>
   <path d="M91.8000,550.8000L91.8000,538.5600"/>
   <path d="M204.0000,397.8000L204.0000,410.0400"/>
   <path d="M204.0000,550.8000L204.0000,538.5600"/>
   <path d="M316.2000,397.8000L316.2000,410.0400"/>
   <path d="M316.2000,550.8000L316.2000,538.5600"/>
   <path d="M428.4000,397.8000L428.4000,410.0400"/>
   <path d="M428.4000,550.8000L428.4000,538.5600"/>
  </g>
  <g style="fill:none; stroke:#000000; stroke-width:  0.9180; stroke-linecap:butt; stroke-linejoin:miter; stroke-dasharray:none">
   <path d="M91.8000,397.8000L91.8000,550.8000"/>
   <path d="M428.4000,397.8000L428.4000,550.8000"/>
  </g>
  <g style="fill:none; stroke:#000000; stroke-width:  1.8360; stroke-linecap:butt; stroke-linejoin:miter; stroke-dasharray:none">
   <path d="M91.8000,420.3000L97.9200,420.3000"/>
   <path d="M428.4000,420.3000L422.2800,420.3000"/>
   <path d="M91.8000,465.3000L97.9200,465.3000"/>
   <path d="M428.4000,465.3000L422.2800,465.3000"/>
   <path d="M91.8000,510.3000L97.9200,510.3000"/>
   <path d="M428.4000,510.3000L422.2800,510.3000"/>
   <path d="M91.8000,397.8000L104.0400,397.8000"/>
   <path d="M428.4000,397.8000L416.1600,397.8000"/>
   <path d="M91.8000,442.8000L104.0400,442.8000"/>
   <path d="M428.4000,442.8000L416.1600,442.8000"/>
   <path d="M91.8000,487.8000L104.0400,487.8000"/>
   <path d="M428.4000,487.8000L416.1600,487.8000"/>
   <path d="M91.8000,532.8000L104.0400,532.8000"/>
   <path d="M428.4000,532.8000L416.1600,532.8000"/>
  </g>
  <g style="fill:#000000; fill-rule:nonzero">
   <text   style="font-family:'Times','Nimbus Roman No9 L'; font-style:normal; font-weight:normal; font-size:612.0000" transform="matrix(0.0350,0.0000,-0.0000,-0.0350,54.6800,396.5840)">-</text>
   <text   style="font-family:'Symbol','Standard Symbols L'; font-style:normal; font-weight:normal; font-size:612.0000" transform="matrix(0.0350,0.0000,-0.0000,-0.0350,61.6800,396.5840)">e</text>
   <text   style="font-family:'Times','Nimbus Roman No9 L'; font-style:normal; font-weight:normal; font-size:612.0000" transform="matrix(0.0247,0.0000,-0.0000,-0.0247,71.6800,388.0160)">nc</text>
   <text   style="font-family:'Times','Nimbus Roman No9 L'; font-style:normal; font-weight:normal; font-size:612.0000" transform="matrix(0.0350,0.0000,-0.0000,-0.0350,75.6800,480.8000)">0</text>
   <text   style="font-family:'Symbol','Standard Symbols L'; font-style:normal; font-weight:normal; font-size:612.0000" transform="matrix(0.0350,0.0000,-0.0000,-0.0350,60.6800,531.5840)">e</text>
   <text   style="font-family:'Times','Nimbus Roman No9 L'; font-style:normal; font-weight:normal; font-size:612.0000" transform="matrix(0.0247,0.0000,-0.0000,-0.0247,70.6800,523.0160)">db</text>
  </g>
  <g style="fill:none; stroke:#000000; stroke-width:  2.2950; stroke-linecap:butt; stroke-linejoin:miter; stroke-dasharray:none">
   <path d="M91.8000,397.8000L91.8000,550.8000L428.4000,550.8000L428.4000,397.8000z"/>
  </g>
  <g style="fill:#FFFFFF; fill-rule:nonzero">
   <path  d="M173.1960,435.7440L173.1960,398.5933L428.5330,398.5933L428.5330,435.7440z"/>
  </g>
  <g style="fill:none; stroke:#000000; stroke-width:  2.2950; stroke-linecap:butt; stroke-linejoin:miter; stroke-dasharray:none">
   <path d="M173.1960,435.7440L173.1960,398.5933L428.5330,398.5933L428.5330,435.7440z"/>
  </g>
  <g style="fill:#000000; fill-rule:nonzero">
   <text   style="font-family:'Symbol','Standard Symbols L'; font-style:normal; font-weight:normal; font-size:612.0000" transform="matrix(0.0364,0.0000,-0.0000,-0.0364,217.4130,413.6240)">e</text>
   <text   style="font-family:'Times','Nimbus Roman No9 L'; font-style:normal; font-weight:bold; font-size:612.0000" transform="matrix(0.0257,0.0000,-0.0000,-0.0257,227.4130,404.7133)">nc</text>
   <text   style="font-family:'Times','Nimbus Roman No9 L'; font-style:normal; font-weight:bold; font-size:612.0000" transform="matrix(0.0364,0.0000,-0.0000,-0.0364,243.4130,413.6240)"> U</text>
   <text   style="font-family:'Times','Nimbus Roman No9 L'; font-style:normal; font-weight:bold; font-size:612.0000" transform="matrix(0.0257,0.0000,-0.0000,-0.0257,265.4130,404.7133)">nc</text>
   <text   style="font-family:'Times','Nimbus Roman No9 L'; font-style:normal; font-weight:bold; font-size:612.0000" transform="matrix(0.0364,0.0000,-0.0000,-0.0364,281.4130,413.6240)">(r) + </text>
   <text   style="font-family:'Symbol','Standard Symbols L'; font-style:normal; font-weight:normal; font-size:612.0000" transform="matrix(0.0364,0.0000,-0.0000,-0.0364,330.4130,413.6240)">e</text>
   <text   style="font-family:'Times','Nimbus Roman No9 L'; font-style:normal; font-weight:bold; font-size:612.0000" transform="matrix(0.0257,0.0000,-0.0000,-0.0257,340.4130,404.7133)">db</text>
   <text   style="font-family:'Times','Nimbus Roman No9 L'; font-style:normal; font-weight:bold; font-size:612.0000" transform="matrix(0.0364,0.0000,-0.0000,-0.0364,358.4130,413.6240)"> U</text>
   <text   style="font-family:'Times','Nimbus Roman No9 L'; font-style:normal; font-weight:bold; font-size:612.0000" transform="matrix(0.0257,0.0000,-0.0000,-0.0257,380.4130,404.7133)">db</text>
   <text   style="font-family:'Times','Nimbus Roman No9 L'; font-style:normal; font-weight:bold; font-size:612.0000" transform="matrix(0.0364,0.0000,-0.0000,-0.0364,398.4130,413.6240)">(r)</text>
  </g>
  <g style="fill:none; stroke:#000000; stroke-width:  2.7540; stroke-linecap:butt; stroke-linejoin:miter; stroke-dasharray:none">
   <path d="M180.6930,417.1686L205.1730,417.1686"/>
   <path d="M139.1271,367.2612L139.4850,363.0088L140.0460,356.5815L140.6070,350.3850L141.1680,344.4118L141.7290,338.6548L142.2900,333.1070L142.8510,327.7617L143.4120,322.6124L143.9730,317.6528
            L144.5340,312.8768L145.0950,308.2784L145.6560,303.8521L146.2170,299.5922L146.7780,295.4934L147.3390,291.5505L147.9000,287.7585L148.4610,284.1126L149.0220,280.6080L149.5830,277.2402
            L150.1440,274.0047L150.7050,270.8974L151.2660,267.9140L151.8270,265.0505L152.3880,262.3032L152.9490,259.6682L153.5100,257.1419L154.0710,254.7207L154.6320,252.4013L155.1930,250.1804
            L155.7540,248.0547L156.3150,246.0212L156.8760,244.0769L157.4370,242.2188L157.9980,240.4442L158.5590,238.7502L159.1200,237.1344L159.6810,235.5940L160.2420,234.1267L160.8030,232.7300
            L161.3640,231.4016L161.9250,230.1393L162.4860,228.9408L163.0470,227.8041L163.6080,226.7271L164.1690,225.7078L164.7300,224.7443L165.2910,223.8347L165.8520,222.9773L166.4130,222.1702
            L166.9740,221.4119L167.5350,220.7005L168.0960,220.0347L168.6570,219.4127L169.2180,218.8332L169.7790,218.2946L170.3400,217.7956L170.9010,217.3348L171.4620,216.9110L172.0230,216.5227
            L172.5840,216.1689L173.1450,215.8482L173.7060,215.5596L174.2670,215.3018L174.8280,215.0739L175.3890,214.8748L175.9500,214.7034L176.5110,214.5588L177.0720,214.4400L177.6330,214.3460
            L178.1940,214.2760L178.7550,214.2291L179.3160,214.2045L179.8770,214.2013L180.4380,214.2187L180.9990,214.2560L181.5600,214.3124L182.1210,214.3873L182.6820,214.4798L183.2430,214.5894
            L183.8040,214.7154L184.3650,214.8571L184.9260,215.0139L185.4870,215.1853L186.0480,215.3706L186.6090,215.5694L187.1700,215.7810L187.7310,216.0049L188.2920,216.2406L188.8530,216.4877
            L189.4140,216.7457L189.9750,217.0140L190.5360,217.2923L191.0970,217.5801L191.6580,217.8770L192.2190,218.1827L192.7800,218.4966L193.3410,218.8185L193.9020,219.1479L194.4630,219.4845
            L195.0240,219.8280L195.5850,220.1780L196.1460,220.5342L196.7070,220.8964L197.2680,221.2641L197.8290,221.6371L198.3900,222.0151L198.9510,222.3979L199.5120,222.7852L200.0730,223.1767
            L200.6340,223.5722L201.1950,223.9714L201.7560,224.3741L202.3170,224.7802L202.8780,225.1893L203.4390,225.6012L204.0000,226.0158L204.5610,226.4329L205.1220,226.8523L205.6830,227.2738
            L206.2440,227.6971L206.8050,228.1223L207.3660,228.5490L207.9270,228.9772L208.4880,229.4066L209.0490,229.8372L209.6100,230.2687L210.1710,230.7011L210.7320,231.1342L211.2930,231.5680
            L211.8540,232.0021L212.4150,232.4367L212.9760,232.8714L213.5370,233.3063L214.0980,233.7412L214.6590,234.1760L215.2200,234.6106L215.7810,235.0450L216.3420,235.4789L216.9030,235.9124
            L217.4640,236.3454L218.0250,236.7778L218.5860,237.2094L219.1470,237.6402L219.7080,238.0702L220.2690,238.4993L220.8300,238.9274L221.3910,239.3544L221.9520,239.7803L222.5130,240.2051
            L223.0740,240.6286L223.6350,241.0508L224.1960,241.4717L224.7570,241.8912L225.3180,242.3093L225.8790,242.7259L226.4400,243.1409L227.0010,243.5544L227.5620,243.9663L228.1230,244.3766
            L228.6840,244.7851L229.2450,245.1920L229.8060,245.5971L230.3670,246.0004L230.9280,246.4019L231.4890,246.8016L232.0500,247.1994L232.6110,247.5954L233.1720,247.9894L233.7330,248.3815
            L234.2940,248.7716L234.8550,249.1598L235.4160,249.5459L235.9770,249.9301L236.5380,250.3122L237.0990,250.6923L237.6600,251.0703L238.2210,251.4463L238.7820,251.8202L239.3430,252.1919
            L239.9040,252.5616L240.4650,252.9292L241.0260,253.2946L241.5870,253.6579L242.1480,254.0191L242.7090,254.3781L243.2700,254.7350L243.8310,255.0897L244.3920,255.4422L244.9530,255.7926
            L245.5140,256.1408L246.0750,256.4869L246.6360,256.8308L247.1970,257.1725L247.7580,257.5120L248.3190,257.8494L248.8800,258.1846L249.4410,258.5176L250.0020,258.8485L250.5630,259.1771
            L251.1240,259.5037L251.6850,259.8280L252.2460,260.1502L252.8070,260.4703L253.3680,260.7882L253.9290,261.1039L254.4900,261.4176L255.0510,261.7290L255.6120,262.0384L256.1730,262.3456
            L256.7340,262.6507L257.2950,262.9537L257.8560,263.2546L258.4170,263.5534L258.9780,263.8500L259.5390,264.1447L260.1000,264.4372L260.6610,264.7276L261.2220,265.0160L261.7830,265.3024
            L262.3440,265.5867L262.9050,265.8690L263.4660,266.1492L264.0270,266.4274L264.5880,266.7036L265.1490,266.9778L265.7100,267.2501L266.2710,267.5203L266.8320,267.7886L267.3930,268.0549
            L267.9540,268.3192L268.5150,268.5816L269.0760,268.8421L269.6370,269.1007L270.1980,269.3573L270.7590,269.6121L271.3200,269.8650L271.8810,270.1159L272.4420,270.3651L273.0030,270.6123
            L273.5640,270.8577L274.1250,271.1013L274.6860,271.3431L275.2470,271.5830L275.8080,271.8211L276.3690,272.0575L276.9300,272.2920L277.4910,272.5248L278.0520,272.7558L278.6130,272.9851
            L279.1740,273.2126L279.7350,273.4385L280.2960,273.6625L280.8570,273.8849L281.4180,274.1056L281.9790,274.3247L282.5400,274.5420L283.1010,274.7577L283.6620,274.9717L284.2230,275.1841
            L284.7840,275.3949L285.3450,275.6041L285.9060,275.8116L286.4670,276.0176L287.0280,276.2220L287.5890,276.4248L288.1500,276.6260L288.7110,276.8257L289.2720,277.0239L289.8330,277.2205
            L290.3940,277.4156L290.9550,277.6093L291.5160,277.8014L292.0770,277.9920L292.6380,278.1812L293.1990,278.3689L293.7600,278.5551L294.3210,278.7399L294.8820,278.9233L295.4430,279.1052
            L296.0040,279.2858L296.5650,279.4649L297.1260,279.6427L297.6870,279.8191L298.2480,279.9941L298.8090,280.1677L299.3700,280.3400L299.9310,280.5110L300.4920,280.6806L301.0530,280.8490
            L301.6140,281.0160L302.1750,281.1817L302.7360,281.3461L303.2970,281.5093L303.8580,281.6711L304.4190,281.8318L304.9800,281.9911L305.5410,282.1493L306.1020,282.3062L306.6630,282.4619
            L307.2240,282.6164L307.7850,282.7696L308.3460,282.9217L308.9070,283.0726L309.4680,283.2223L310.0290,283.3709L310.5900,283.5183L311.1510,283.6646L311.7120,283.8097L312.2730,283.9537
            L312.8340,284.0966L313.3950,284.2384L313.9560,284.3791L314.5170,284.5186L315.0780,284.6571L315.6390,284.7946L316.2000,284.9309L316.7610,285.0662L317.3220,285.2004L317.8830,285.3337
            L318.4440,285.4658L319.0050,285.5970L319.5660,285.7271L320.1270,285.8562L320.6880,285.9844L321.2490,286.1115L321.8100,286.2376L322.3710,286.3628L322.9320,286.4870L323.4930,286.6102
            L324.0540,286.7325L324.6150,286.8539L325.1760,286.9743L325.7370,287.0938L326.2980,287.2123L326.8590,287.3299L327.4200,287.4467L327.9810,287.5625L328.5420,287.6774L329.1030,287.7915
            L329.6640,287.9047L330.2250,288.0170L330.7860,288.1284L331.3470,288.2390L331.9080,288.3487L332.4690,288.4576L333.0300,288.5656L333.5910,288.6729L334.1520,288.7793L334.7130,288.8848
            L335.2740,288.9896L335.8350,289.0936L336.3960,289.1967L336.9570,289.2991L337.5180,289.4007L338.0790,289.5015L338.6400,289.6016L339.2010,289.7009L339.7620,289.7994L340.3230,289.8972
            L340.8840,289.9942L341.4450,290.0905L342.0060,290.1860L342.5670,290.2808L343.1280,290.3749L343.6890,290.4683L344.2500,290.5610L344.8110,290.6530L345.3720,290.7442L345.9330,290.8348
            L346.4940,290.9247L347.0550,291.0139L347.6160,291.1025L348.1770,291.1903L348.7380,291.2775L349.2990,291.3641L349.8600,291.4499L350.4210,291.5352L350.9820,291.6198L351.5430,291.7037
            L352.1040,291.7870L352.6650,291.8697L353.2260,291.9518L353.7870,292.0333L354.3480,292.1141L354.9090,292.1943L355.4700,292.2739L356.0310,292.3530L356.5920,292.4314L357.1530,292.5093
            L357.7140,292.5865L358.2750,292.6632L358.8360,292.7393L359.3970,292.8149L359.9580,292.8898L360.5190,292.9643L361.0800,293.0381L361.6410,293.1114L362.2020,293.1842L362.7630,293.2564
            L363.3240,293.3281L363.8850,293.3992L364.4460,293.4699L365.0070,293.5400L365.5680,293.6095L366.1290,293.6786L366.6900,293.7472L367.2510,293.8152L367.8120,293.8827L368.3730,293.9498
            L368.9340,294.0163L369.4950,294.0824L370.0560,294.1479L370.6170,294.2130L371.1780,294.2776L371.7390,294.3417L372.3000,294.4054L372.8610,294.4686L373.4220,294.5313L373.9830,294.5935
            L374.5440,294.6553L375.1050,294.7167L375.6660,294.7776L376.2270,294.8380L376.7880,294.8981L377.3490,294.9576L377.9100,295.0168L378.4710,295.0755L379.0320,295.1337L379.5930,295.1916
            L380.1540,295.2490L380.7150,295.3060L381.2760,295.3626L381.8370,295.4188L382.3980,295.4746L382.9590,295.5300L383.5200,295.5849L384.0810,295.6395L384.6420,295.6937L385.2030,295.7475
            L385.7640,295.8009L386.3250,295.8539L386.8860,295.9065L387.4470,295.9588L388.0080,296.0106L388.5690,296.0621L389.1300,296.1133L389.6910,296.1640L390.2520,296.2144L390.8130,296.2645
            L391.3740,296.3141L391.9350,296.3635L392.4960,296.4124L393.0570,296.4610L393.6180,296.5093L394.1790,296.5572L394.7400,296.6048L395.3010,296.6521L395.8620,296.6990L396.4230,296.7455
            L396.9840,296.7918L397.5450,296.8377L398.1060,296.8833L398.6670,296.9285L399.2280,296.9735L399.7890,297.0181L400.3500,297.0624L400.9110,297.1064L401.4720,297.1501L402.0330,297.1934
            L402.5940,297.2365L403.1550,297.2793L403.7160,297.3217L404.2770,297.3639L404.8380,297.4058L405.3990,297.4473L405.9600,297.4886L406.5210,297.5296L407.0820,297.5703L407.6430,297.6107
            L408.2040,297.6509L408.7650,297.6907L409.3260,297.7303L409.8870,297.7696L410.4480,297.8086L411.0090,297.8474L411.5700,297.8858L412.1310,297.9240L412.6920,297.9620L413.2530,297.9997
            L413.8140,298.0371L414.3750,298.0743L414.9360,298.1112L415.4970,298.1478L416.0580,298.1842L416.6190,298.2204L417.1800,298.2562L417.7410,298.2919L418.3020,298.3273L418.8630,298.3624
            L419.4240,298.3974L419.9850,298.4320L420.5460,298.4665L421.1070,298.5007L421.6680,298.5346L422.2290,298.5684L422.7900,298.6019L423.3510,298.6351L423.9120,298.6682L424.4730,298.7010
            L425.0340,298.7336L425.5950,298.7659L426.1560,298.7981L426.7170,298.8300L427.2780,298.8617L427.8390,298.8932L428.4000,298.9245L428.4612,298.9279"/>
  </g>
  <g style="fill:none; stroke:#000000; stroke-width:  0.9180; stroke-linecap:butt; stroke-linejoin:miter; stroke-dasharray:none">
   <path d="M91.8000,214.2000L428.4000,214.2000"/>
   <path d="M91.8000,367.2000L428.4000,367.2000"/>
  </g>
  <g style="fill:none; stroke:#000000; stroke-width:  1.8360; stroke-linecap:butt; stroke-linejoin:miter; stroke-dasharray:none">
   <path d="M147.9000,214.2000L147.9000,220.3200"/>
   <path d="M147.9000,367.2000L147.9000,361.0800"/>
   <path d="M260.1000,214.2000L260.1000,220.3200"/>
   <path d="M260.1000,367.2000L260.1000,361.0800"/>
   <path d="M372.3000,214.2000L372.3000,220.3200"/>
   <path d="M372.3000,367.2000L372.3000,361.0800"/>
   <path d="M91.8000,214.2000L91.8000,226.4400"/>
   <path d="M91.8000,367.2000L91.8000,354.9600"/>
   <path d="M204.0000,214.2000L204.0000,226.4400"/>
   <path d="M204.0000,367.2000L204.0000,354.9600"/>
   <path d="M316.2000,214.2000L316.2000,226.4400"/>
   <path d="M316.2000,367.2000L316.2000,354.9600"/>
   <path d="M428.4000,214.2000L428.4000,226.4400"/>
   <path d="M428.4000,367.2000L428.4000,354.9600"/>
  </g>
  <g style="fill:#000000; fill-rule:nonzero">
   <text   style="font-family:'Times','Nimbus Roman No9 L'; font-style:normal; font-weight:normal; font-size:612.0000" transform="matrix(0.0350,0.0000,-0.0000,-0.0350,78.8000,186.9600)">0.4</text>
   <text   style="font-family:'Times','Nimbus Roman No9 L'; font-style:normal; font-weight:normal; font-size:612.0000" transform="matrix(0.0350,0.0000,-0.0000,-0.0350,191.0000,186.9600)">0.6</text>
   <text   style="font-family:'Times','Nimbus Roman No9 L'; font-style:normal; font-weight:normal; font-size:612.0000" transform="matrix(0.0350,0.0000,-0.0000,-0.0350,303.2000,186.9600)">0.8</text>
   <text   style="font-family:'Times','Nimbus Roman No9 L'; font-style:normal; font-weight:normal; font-size:612.0000" transform="matrix(0.0350,0.0000,-0.0000,-0.0350,423.9000,186.9600)">1</text>
   <text   style="font-family:'Times','Nimbus Roman No9 L'; font-style:normal; font-weight:bold; font-size:612.0000" transform="matrix(0.0420,0.0000,-0.0000,-0.0420,225.6000,164.3600)">r [nm]</text>
  </g>
  <g style="fill:none; stroke:#000000; stroke-width:  0.9180; stroke-linecap:butt; stroke-linejoin:miter; stroke-dasharray:none">
   <path d="M91.8000,214.2000L91.8000,367.2000"/>
   <path d="M428.4000,214.2000L428.4000,367.2000"/>
  </g>
  <g style="fill:none; stroke:#000000; stroke-width:  1.8360; stroke-linecap:butt; stroke-linejoin:miter; stroke-dasharray:none">
   <path d="M91.8000,236.7000L97.9200,236.7000"/>
   <path d="M428.4000,236.7000L422.2800,236.7000"/>
   <path d="M91.8000,281.7000L97.9200,281.7000"/>
   <path d="M428.4000,281.7000L422.2800,281.7000"/>
   <path d="M91.8000,326.7000L97.9200,326.7000"/>
   <path d="M428.4000,326.7000L422.2800,326.7000"/>
   <path d="M91.8000,214.2000L104.0400,214.2000"/>
   <path d="M428.4000,214.2000L416.1600,214.2000"/>
   <path d="M91.8000,259.2000L104.0400,259.2000"/>
   <path d="M428.4000,259.2000L416.1600,259.2000"/>
   <path d="M91.8000,304.2000L104.0400,304.2000"/>
   <path d="M428.4000,304.2000L416.1600,304.2000"/>
   <path d="M91.8000,349.2000L104.0400,349.2000"/>
   <path d="M428.4000,349.2000L416.1600,349.2000"/>
  </g>
  <g style="fill:#000000; fill-rule:nonzero">
   <text   style="font-family:'Times','Nimbus Roman No9 L'; font-style:normal; font-weight:normal; font-size:612.0000" transform="matrix(0.0350,0.0000,-0.0000,-0.0350,53.6800,214.9840)">-</text>
   <text   style="font-family:'Symbol','Standard Symbols L'; font-style:normal; font-weight:normal; font-size:612.0000" transform="matrix(0.0350,0.0000,-0.0000,-0.0350,60.6800,214.9840)">e</text>
   <text   style="font-family:'Times','Nimbus Roman No9 L'; font-style:normal; font-weight:normal; font-size:612.0000" transform="matrix(0.0247,0.0000,-0.0000,-0.0247,70.6800,206.4160)">hp</text>
   <text   style="font-family:'Times','Nimbus Roman No9 L'; font-style:normal; font-weight:normal; font-size:612.0000" transform="matrix(0.0350,0.0000,-0.0000,-0.0350,75.6800,297.2000)">0</text>
  </g>
  <g style="fill:none; stroke:#000000; stroke-width:  2.2950; stroke-linecap:butt; stroke-linejoin:miter; stroke-dasharray:none">
   <path d="M91.8000,214.2000L91.8000,367.2000L428.4000,367.2000L428.4000,214.2000z"/>
  </g>
  <g style="fill:#FFFFFF; fill-rule:nonzero">
   <path  d="M286.4160,253.3680L286.4160,213.2173L428.7530,213.2173L428.7530,253.3680z"/>
  </g>
  <g style="fill:none; stroke:#000000; stroke-width:  2.2950; stroke-linecap:butt; stroke-linejoin:miter; stroke-dasharray:none">
   <path d="M286.4160,253.3680L286.4160,213.2173L428.7530,213.2173L428.7530,253.3680z"/>
  </g>
  <g style="fill:#000000; fill-rule:nonzero">
   <text   style="font-family:'Symbol','Standard Symbols L'; font-style:normal; font-weight:normal; font-size:612.0000" transform="matrix(0.0364,0.0000,-0.0000,-0.0364,330.6330,231.2480)">e</text>
   <text   style="font-family:'Times','Nimbus Roman No9 L'; font-style:normal; font-weight:bold; font-size:612.0000" transform="matrix(0.0257,0.0000,-0.0000,-0.0257,340.6330,222.3373)">hp</text>
   <text   style="font-family:'Times','Nimbus Roman No9 L'; font-style:normal; font-weight:bold; font-size:612.0000" transform="matrix(0.0364,0.0000,-0.0000,-0.0364,358.6330,231.2480)"> U</text>
   <text   style="font-family:'Times','Nimbus Roman No9 L'; font-style:normal; font-weight:bold; font-size:612.0000" transform="matrix(0.0257,0.0000,-0.0000,-0.0257,380.6330,222.3373)">hp</text>
   <text   style="font-family:'Times','Nimbus Roman No9 L'; font-style:normal; font-weight:bold; font-size:612.0000" transform="matrix(0.0364,0.0000,-0.0000,-0.0364,398.6330,231.2480)">(r)</text>
  </g>
  <g style="fill:none; stroke:#000000; stroke-width:  2.7540; stroke-linecap:butt; stroke-linejoin:miter; stroke-dasharray:none">
   <path d="M293.9130,233.2926L318.3930,233.2926"/>
  </g>
  <g style="fill:#000000; fill-rule:nonzero">
   <text   style="font-family:'Times','Nimbus Roman No9 L'; font-style:normal; font-weight:bold; font-size:612.0000" transform="matrix(0.0420,0.0000,-0.0000,-0.0420,385.5600,523.2600)">(a)</text>
   <text   style="font-family:'Times','Nimbus Roman No9 L'; font-style:normal; font-weight:bold; font-size:612.0000" transform="matrix(0.0420,0.0000,-0.0000,-0.0420,385.5600,339.6600)">(b)</text>
  </g>
 </g>
</svg>
