<?xml version="1.0" encoding="utf-8" standalone="no"?>
<!DOCTYPE svg PUBLIC "-//W3C//DTD SVG 1.1//EN"
  "http://www.w3.org/Graphics/SVG/1.1/DTD/svg11.dtd">
<!-- Created with matplotlib (http://matplotlib.org/) -->
<svg height="432pt" version="1.1" viewBox="0 0 720 432" width="720pt" xmlns="http://www.w3.org/2000/svg" xmlns:xlink="http://www.w3.org/1999/xlink">
 <defs>
  <style type="text/css">
*{stroke-linecap:butt;stroke-linejoin:round;stroke-miterlimit:100000;}
  </style>
 </defs>
 <g id="figure_1">
  <g id="patch_1">
   <path d="M 0 432 
L 720 432 
L 720 0 
L 0 0 
z
" style="fill:#ffffff;"/>
  </g>
  <g id="axes_1">
   <g id="patch_2">
    <path d="M 90 378 
L 648 378 
L 648 43.2 
L 90 43.2 
z
" style="fill:#ffffff;"/>
   </g>
   <g id="line2d_1">
    <path clip-path="url(#p87fcbb5203)" d="M 119.963588 -1 
L 122.55 42.145332 
L 125.34 83.500369 
L 128.13 120.071914 
L 129.99 142.041772 
L 131.85 162.240089 
L 133.71 180.791185 
L 135.57 197.81071 
L 137.43 213.406267 
L 139.29 227.677987 
L 141.15 240.719063 
L 143.01 252.616244 
L 144.87 263.450292 
L 146.73 273.296402 
L 148.59 282.2246 
L 150.45 290.3001 
L 152.31 297.583646 
L 154.17 304.131822 
L 156.03 309.997342 
L 157.89 315.22932 
L 159.75 319.873518 
L 161.61 323.972578 
L 163.47 327.56624 
L 165.33 330.691535 
L 167.19 333.382978 
L 169.05 335.672736 
L 170.91 337.59079 
L 172.77 339.165083 
L 174.63 340.421658 
L 176.49 341.38479 
L 178.35 342.0771 
L 180.21 342.519675 
L 182.07 342.732162 
L 183 342.757895 
L 183.93 342.573661 
L 184.86 342.035574 
L 185.79 341.164942 
L 186.72 339.982263 
L 187.65 338.507252 
L 188.58 336.758862 
L 190.44 332.514077 
L 192.3 327.385086 
L 194.16 321.498195 
L 196.02 314.969456 
L 198.81 304.203122 
L 201.6 292.551211 
L 206.25 271.904911 
L 218.34 217.215574 
L 222.99 197.596823 
L 226.71 182.904479 
L 230.43 169.23211 
L 233.22 159.691939 
L 236.01 150.78341 
L 238.8 142.513268 
L 241.59 134.879767 
L 244.38 127.873965 
L 247.17 121.480889 
L 249.96 115.680591 
L 252.75 110.449095 
L 255.54 105.759246 
L 258.33 101.581462 
L 261.12 97.884408 
L 263.91 94.635585 
L 266.7 91.801852 
L 269.49 89.349874 
L 272.28 87.24652 
L 275.07 85.459198 
L 277.86 83.956147 
L 280.65 82.706679 
L 283.44 81.681385 
L 286.23 80.852305 
L 289.95 80.006751 
L 293.67 79.405576 
L 298.32 78.919069 
L 303.9 78.609152 
L 311.34 78.463757 
L 324.36 78.465835 
L 328.08 78.655691 
L 331.8 79.035735 
L 335.52 79.607762 
L 339.24 80.377203 
L 342.96 81.35622 
L 346.68 82.567438 
L 350.4 84.047922 
L 353.19 85.367323 
L 355.98 86.899184 
L 358.77 88.680067 
L 361.56 90.751425 
L 364.35 93.157085 
L 367.14 95.939065 
L 369.93 99.131612 
L 372.72 102.753722 
L 375.51 106.801098 
L 378.3 111.239204 
L 382.02 117.641305 
L 394.11 139.036459 
L 396.9 143.359139 
L 399.69 147.262947 
L 402.48 150.715291 
L 405.27 153.712514 
L 408.06 156.273342 
L 410.85 158.431591 
L 413.64 160.22952 
L 416.43 161.712531 
L 419.22 162.925419 
L 422.01 163.909997 
L 425.73 164.93187 
L 429.45 165.690052 
L 434.1 166.359256 
L 438.75 166.80355 
L 445.26 167.171489 
L 453.63 167.379916 
L 465.72 167.421821 
L 491.76 167.215976 
L 541.98 166.863293 
L 605.22 166.678826 
L 648.93 166.62489 
L 648.93 166.62489 
" style="fill:none;stroke:#000000;stroke-linecap:square;stroke-width:3.0;"/>
   </g>
   <g id="patch_3">
    <path d="M 90 43.2 
L 648 43.2 
" style="fill:none;stroke:#000000;stroke-linecap:square;stroke-linejoin:miter;stroke-width:3.0;"/>
   </g>
   <g id="patch_4">
    <path d="M 648 378 
L 648 43.2 
" style="fill:none;stroke:#000000;stroke-linecap:square;stroke-linejoin:miter;stroke-width:3.0;"/>
   </g>
   <g id="patch_5">
    <path d="M 90 378 
L 648 378 
" style="fill:none;stroke:#000000;stroke-linecap:square;stroke-linejoin:miter;stroke-width:3.0;"/>
   </g>
   <g id="patch_6">
    <path d="M 90 378 
L 90 43.2 
" style="fill:none;stroke:#000000;stroke-linecap:square;stroke-linejoin:miter;stroke-width:3.0;"/>
   </g>
   <g id="matplotlib.axis_1">
    <g id="xtick_1">
     <g id="line2d_2">
      <defs>
       <path d="M 0 0 
L 0 -4 
" id="m7680069c48" style="stroke:#000000;stroke-width:0.5;"/>
      </defs>
      <g>
       <use style="stroke:#000000;stroke-width:0.5;" x="90.0" xlink:href="#m7680069c48" y="378.0"/>
      </g>
     </g>
     <g id="line2d_3">
      <defs>
       <path d="M 0 0 
L 0 4 
" id="ma3d46fedd8" style="stroke:#000000;stroke-width:0.5;"/>
      </defs>
      <g>
       <use style="stroke:#000000;stroke-width:0.5;" x="90.0" xlink:href="#ma3d46fedd8" y="43.2"/>
      </g>
     </g>
     <g id="text_1">
      <!-- $0.4$ -->
      <defs>
       <path d="M 33.59375 64.328125 
C 33.59375 66.40625 33.5 66.5 31.703125 66.5 
L 2 19.59375 
L 2 17 
L 27.796875 17 
L 27.796875 7.140625 
C 27.796875 3.5 27.59375 2.5 20.59375 2.5 
L 18.703125 2.5 
L 18.703125 0 
C 21.90625 0 27.296875 0 30.703125 0 
C 34.09375 0 39.5 0 42.703125 0 
L 42.703125 2.5 
L 40.796875 2.5 
C 33.796875 2.5 33.59375 3.5 33.59375 7.140625 
L 33.59375 17 
L 43.796875 17 
L 43.796875 19.59375 
L 33.59375 19.59375 
z
M 28.09375 57.765625 
L 28.09375 19.59375 
L 4 19.59375 
z
" id="CMR17-52"/>
       <path d="M 42 31.640625 
C 42 37.75 41.90625 48.125 37.703125 56.109375 
C 34 63.109375 28.09375 65.59375 22.90625 65.59375 
C 18.09375 65.59375 12 63.40625 8.203125 56.203125 
C 4.203125 48.71875 3.796875 39.4375 3.796875 31.640625 
C 3.796875 25.953125 3.90625 17.28125 7 9.671875 
C 11.296875 -0.609375 19 -2 22.90625 -2 
C 27.5 -2 34.5 -0.109375 38.59375 9.375 
C 41.59375 16.28125 42 24.359375 42 31.640625 
M 22.90625 -0.40625 
C 16.5 -0.40625 12.703125 5.078125 11.296875 12.6875 
C 10.203125 18.5625 10.203125 27.15625 10.203125 32.75 
C 10.203125 40.4375 10.203125 46.828125 11.5 52.921875 
C 13.40625 61.390625 19 64 22.90625 64 
C 27 64 32.296875 61.296875 34.203125 53.125 
C 35.5 47.4375 35.59375 40.734375 35.59375 32.75 
C 35.59375 26.25 35.59375 18.265625 34.40625 12.375 
C 32.296875 1.484375 26.40625 -0.40625 22.90625 -0.40625 
" id="CMR17-48"/>
       <path d="M 18.40625 4.796875 
C 18.40625 7.6875 16 9.671875 13.59375 9.671875 
C 10.703125 9.671875 8.703125 7.28125 8.703125 4.890625 
C 8.703125 2 11.09375 0 13.5 0 
C 16.40625 0 18.40625 2.390625 18.40625 4.796875 
" id="CMMI12-58"/>
      </defs>
      <g transform="translate(72.2282803014 414.294960792)scale(0.3 -0.3)">
       <use transform="scale(0.996264009963)" xlink:href="#CMR17-48"/>
       <use transform="translate(45.6904771171 0.0)scale(0.996264009963)" xlink:href="#CMMI12-58"/>
       <use transform="translate(72.7876542069 0.0)scale(0.996264009963)" xlink:href="#CMR17-52"/>
      </g>
     </g>
    </g>
    <g id="xtick_2">
     <g id="line2d_4">
      <g>
       <use style="stroke:#000000;stroke-width:0.5;" x="276.0" xlink:href="#m7680069c48" y="378.0"/>
      </g>
     </g>
     <g id="line2d_5">
      <g>
       <use style="stroke:#000000;stroke-width:0.5;" x="276.0" xlink:href="#ma3d46fedd8" y="43.2"/>
      </g>
     </g>
     <g id="text_2">
      <!-- $0.6$ -->
      <defs>
       <path d="M 10.59375 34 
C 10.59375 57.65625 21.796875 63 28.296875 63 
C 30.40625 63 35.5 62.640625 37.5 59 
C 35.90625 59 32.90625 59 32.90625 55.515625 
C 32.90625 52.828125 35.09375 51.921875 36.5 51.921875 
C 37.40625 51.921875 40.09375 52.3125 40.09375 55.625 
C 40.09375 61.78125 35.09375 65.296875 28.203125 65.296875 
C 16.296875 65.296875 3.796875 52.96875 3.796875 31 
C 3.796875 3.953125 15.09375 -2 23.09375 -2 
C 32.796875 -2 42 6.671875 42 20.046875 
C 42 32.515625 33.90625 41.59375 23.703125 41.59375 
C 17.59375 41.59375 13.09375 37.609375 10.59375 30.625 
z
M 23.09375 0.390625 
C 10.796875 0.390625 10.796875 18.75 10.796875 22.4375 
C 10.796875 29.625 14.203125 40 23.5 40 
C 25.203125 40 30.09375 40 33.40625 33.125 
C 35.203125 29.21875 35.203125 25.140625 35.203125 20.140625 
C 35.203125 14.75 35.203125 10.78125 33.09375 6.78125 
C 30.90625 2.671875 27.703125 0.390625 23.09375 0.390625 
" id="CMR17-54"/>
      </defs>
      <g transform="translate(258.228280301 414.294960792)scale(0.3 -0.3)">
       <use transform="scale(0.996264009963)" xlink:href="#CMR17-48"/>
       <use transform="translate(45.6904771171 0.0)scale(0.996264009963)" xlink:href="#CMMI12-58"/>
       <use transform="translate(72.7876542069 0.0)scale(0.996264009963)" xlink:href="#CMR17-54"/>
      </g>
     </g>
    </g>
    <g id="xtick_3">
     <g id="line2d_6">
      <g>
       <use style="stroke:#000000;stroke-width:0.5;" x="462.0" xlink:href="#m7680069c48" y="378.0"/>
      </g>
     </g>
     <g id="line2d_7">
      <g>
       <use style="stroke:#000000;stroke-width:0.5;" x="462.0" xlink:href="#ma3d46fedd8" y="43.2"/>
      </g>
     </g>
     <g id="text_3">
      <!-- $0.8$ -->
      <defs>
       <path d="M 27.203125 35.375 
C 33.5 38.5625 39.90625 43.328125 39.90625 50.984375 
C 39.90625 60.03125 31.09375 65.296875 23 65.296875 
C 13.90625 65.296875 5.90625 58.734375 5.90625 49.6875 
C 5.90625 47.203125 6.5 42.921875 10.40625 39.140625 
C 11.40625 38.15625 15.59375 35.171875 18.296875 33.28125 
C 13.796875 30.984375 3.296875 25.53125 3.296875 14.59375 
C 3.296875 4.359375 13.09375 -2 22.796875 -2 
C 33.5 -2 42.5 5.65625 42.5 15.796875 
C 42.5 24.84375 36.40625 29.03125 32.40625 31.703125 
z
M 14.09375 44.125 
C 13.296875 44.625 9.296875 47.703125 9.296875 52.375 
C 9.296875 58.4375 15.59375 63 22.796875 63 
C 30.703125 63 36.5 57.453125 36.5 50.984375 
C 36.5 41.734375 26.09375 36.46875 25.59375 36.46875 
C 25.5 36.46875 25.40625 36.46875 24.59375 37.078125 
z
M 32.5 23.734375 
C 34 22.640625 38.796875 19.375 38.796875 13.296875 
C 38.796875 5.953125 31.40625 0.390625 23 0.390625 
C 13.90625 0.390625 7 6.84375 7 14.6875 
C 7 22.546875 13.09375 29.09375 20 32.1875 
z
" id="CMR17-56"/>
      </defs>
      <g transform="translate(444.228280301 414.294960792)scale(0.3 -0.3)">
       <use transform="scale(0.996264009963)" xlink:href="#CMR17-48"/>
       <use transform="translate(45.6904771171 0.0)scale(0.996264009963)" xlink:href="#CMMI12-58"/>
       <use transform="translate(72.7876542069 0.0)scale(0.996264009963)" xlink:href="#CMR17-56"/>
      </g>
     </g>
    </g>
    <g id="xtick_4">
     <g id="line2d_8">
      <g>
       <use style="stroke:#000000;stroke-width:0.5;" x="648.0" xlink:href="#m7680069c48" y="378.0"/>
      </g>
     </g>
     <g id="line2d_9">
      <g>
       <use style="stroke:#000000;stroke-width:0.5;" x="648.0" xlink:href="#ma3d46fedd8" y="43.2"/>
      </g>
     </g>
     <g id="text_4">
      <!-- $1.0$ -->
      <defs>
       <path d="M 26.59375 63.3125 
C 26.59375 65.40625 26.5 65.5 25.09375 65.5 
C 21.203125 61.1875 15.296875 59.796875 9.703125 59.796875 
C 9.40625 59.796875 8.90625 59.796875 8.796875 59.609375 
C 8.703125 59.390625 8.703125 59.171875 8.703125 57 
C 11.796875 57 17 57.59375 21 59.984375 
L 21 7.203125 
C 21 3.6875 20.796875 2.5 12.203125 2.5 
L 9.203125 2.5 
L 9.203125 0 
C 14 0 19 0 23.796875 0 
C 28.59375 0 33.59375 0 38.40625 0 
L 38.40625 2.5 
L 35.40625 2.5 
C 26.796875 2.5 26.59375 3.59375 26.59375 7.15625 
z
" id="CMR17-49"/>
      </defs>
      <g transform="translate(630.228280301 414.294960792)scale(0.3 -0.3)">
       <use transform="scale(0.996264009963)" xlink:href="#CMR17-49"/>
       <use transform="translate(45.6904771171 0.0)scale(0.996264009963)" xlink:href="#CMMI12-58"/>
       <use transform="translate(72.7876542069 0.0)scale(0.996264009963)" xlink:href="#CMR17-48"/>
      </g>
     </g>
    </g>
    <g id="text_5">
     <!-- $r \,\, [\rm{nm}]$ -->
     <defs>
      <path d="M 38.90625 40.8125 
C 35.796875 40.21875 34.203125 38.015625 34.203125 35.828125 
C 34.203125 33.421875 36.09375 32.625 37.5 32.625 
C 40.296875 32.625 42.59375 35.03125 42.59375 38.015625 
C 42.59375 41.21875 39.5 44 34.5 44 
C 30.5 44 25.90625 42.203125 21.703125 36.125 
C 21 41.40625 17 44 13 44 
C 9.09375 44 7.09375 41.015625 5.90625 38.8125 
C 4.203125 35.21875 2.703125 29.234375 2.703125 28.734375 
C 2.703125 28.34375 3.09375 27.84375 3.796875 27.84375 
C 4.59375 27.84375 4.703125 27.9375 5.296875 30.234375 
C 6.796875 36.21875 8.703125 42.015625 12.703125 42.015625 
C 15.09375 42.015625 15.796875 40.3125 15.796875 37.421875 
C 15.796875 35.21875 14.796875 31.328125 14.09375 28.234375 
L 11.296875 17.46875 
C 10.90625 15.5625 9.796875 11.078125 9.296875 9.28125 
C 8.59375 6.6875 7.5 2 7.5 1.5 
C 7.5 0.09375 8.59375 -1 10.09375 -1 
C 11.203125 -1 13.09375 -0.296875 13.703125 1.703125 
C 14 2.5 17.703125 17.5625 18.296875 19.859375 
C 18.796875 22.046875 19.40625 24.15625 19.90625 26.34375 
C 20.296875 27.734375 20.703125 29.34375 21 30.640625 
C 21.296875 31.53125 24 36.421875 26.5 38.625 
C 27.703125 39.71875 30.296875 42.015625 34.40625 42.015625 
C 36 42.015625 37.59375 41.71875 38.90625 40.8125 
" id="CMMI12-114"/>
      <path d="M 67.59375 30.203125 
C 67.59375 35.1875 66.703125 43.59375 54.796875 43.59375 
C 48 43.59375 43.296875 39 41.5 33.59375 
L 41.40625 33.59375 
C 40.203125 41.796875 34.296875 43.59375 28.703125 43.59375 
C 20.796875 43.59375 16.703125 37.5625 15.203125 33.59375 
L 15.09375 33.59375 
L 15.09375 43.59375 
L 3.296875 42.5 
L 3.296875 39.90625 
C 9.203125 39.90625 10.09375 39.296875 10.09375 34.5 
L 10.09375 6.6875 
C 10.09375 2.875 9.703125 2.390625 3.296875 2.390625 
L 3.296875 -0.203125 
C 5.703125 0 10.09375 0 12.703125 0 
C 15.296875 0 19.796875 0 22.203125 -0.203125 
L 22.203125 2.390625 
C 15.796875 2.390625 15.40625 2.78125 15.40625 6.6875 
L 15.40625 25.90625 
C 15.40625 35.109375 21 42 28 42 
C 35.40625 42 36.203125 35.40625 36.203125 30.59375 
L 36.203125 6.6875 
C 36.203125 2.875 35.796875 2.390625 29.40625 2.390625 
L 29.40625 -0.203125 
C 31.796875 0 36.203125 0 38.796875 0 
C 41.40625 0 45.90625 0 48.296875 -0.203125 
L 48.296875 2.390625 
C 41.90625 2.390625 41.5 2.78125 41.5 6.6875 
L 41.5 25.90625 
C 41.5 35.109375 47.09375 42 54.09375 42 
C 61.5 42 62.296875 35.40625 62.296875 30.59375 
L 62.296875 6.6875 
C 62.296875 2.875 61.90625 2.390625 55.5 2.390625 
L 55.5 -0.203125 
C 57.90625 0 62.296875 0 64.90625 0 
C 67.5 0 72 0 74.40625 -0.203125 
L 74.40625 2.390625 
C 68 2.390625 67.59375 2.78125 67.59375 6.6875 
z
" id="CMR17-109"/>
      <path d="M 23.5 -25 
L 23.5 -21.515625 
L 14.09375 -21.515625 
L 14.09375 71 
L 23.5 71 
L 23.5 74.484375 
L 10.59375 74.484375 
L 10.59375 -25 
z
" id="CMR17-91"/>
      <path d="M 41.5 30.203125 
C 41.5 35.296875 40.5 43.59375 28.703125 43.59375 
C 20.796875 43.59375 16.703125 37.5 15.203125 33.5 
L 15.09375 33.5 
L 15.09375 43.59375 
L 3.296875 42.5 
L 3.296875 39.90625 
C 9.203125 39.90625 10.09375 39.296875 10.09375 34.5 
L 10.09375 6.6875 
C 10.09375 2.875 9.703125 2.390625 3.296875 2.390625 
L 3.296875 -0.203125 
C 5.703125 0 10.09375 0 12.703125 0 
C 15.296875 0 19.796875 0 22.203125 -0.203125 
L 22.203125 2.390625 
C 15.796875 2.390625 15.40625 2.78125 15.40625 6.6875 
L 15.40625 25.90625 
C 15.40625 35.109375 21 42 28 42 
C 35.40625 42 36.203125 35.40625 36.203125 30.59375 
L 36.203125 6.6875 
C 36.203125 2.875 35.796875 2.390625 29.40625 2.390625 
L 29.40625 -0.203125 
C 31.796875 0 36.203125 0 38.796875 0 
C 41.40625 0 45.90625 0 48.296875 -0.203125 
L 48.296875 2.390625 
C 41.90625 2.390625 41.5 2.78125 41.5 6.6875 
z
" id="CMR17-110"/>
      <path d="M 14.296875 74.484375 
L 1.40625 74.484375 
L 1.40625 71 
L 10.796875 71 
L 10.796875 -21.515625 
L 1.40625 -21.515625 
L 1.40625 -25 
L 14.296875 -25 
z
" id="CMR17-93"/>
     </defs>
     <g transform="translate(317.51272602 460.51296408)scale(0.4 -0.4)">
      <use transform="scale(0.996264009963)" xlink:href="#CMMI12-114"/>
      <use transform="translate(79.8794225025 0.0)scale(0.996264009963)" xlink:href="#CMR17-91"/>
      <use transform="translate(104.750480984 0.0)scale(0.996264009963)" xlink:href="#CMR17-110"/>
      <use transform="translate(155.645850765 0.0)scale(0.996264009963)" xlink:href="#CMR17-109"/>
      <use transform="translate(232.565440633 0.0)scale(0.996264009963)" xlink:href="#CMR17-93"/>
     </g>
    </g>
   </g>
   <g id="matplotlib.axis_2">
    <g id="ytick_1">
     <g id="line2d_10">
      <defs>
       <path d="M 0 0 
L 4 0 
" id="mc25fa1a484" style="stroke:#000000;stroke-width:0.5;"/>
      </defs>
      <g>
       <use style="stroke:#000000;stroke-width:0.5;" x="90.0" xlink:href="#mc25fa1a484" y="342.757894737"/>
      </g>
     </g>
     <g id="line2d_11">
      <defs>
       <path d="M 0 0 
L -4 0 
" id="m1d385304ba" style="stroke:#000000;stroke-width:0.5;"/>
      </defs>
      <g>
       <use style="stroke:#000000;stroke-width:0.5;" x="648.0" xlink:href="#m1d385304ba" y="342.757894737"/>
      </g>
     </g>
     <g id="text_6">
      <!-- $-1.0$ -->
      <defs>
       <path d="M 65.90625 23 
C 67.59375 23 69.40625 23 69.40625 25 
C 69.40625 27 67.59375 27 65.90625 27 
L 11.796875 27 
C 10.09375 27 8.296875 27 8.296875 25 
C 8.296875 23 10.09375 23 11.796875 23 
z
" id="CMSY10-0"/>
      </defs>
      <g transform="translate(27.2103294287 350.222395535)scale(0.3 -0.3)">
       <use transform="scale(0.996264009963)" xlink:href="#CMSY10-0"/>
       <use transform="translate(77.4874676506 0.0)scale(0.996264009963)" xlink:href="#CMR17-49"/>
       <use transform="translate(123.177944768 0.0)scale(0.996264009963)" xlink:href="#CMMI12-58"/>
       <use transform="translate(150.275121857 0.0)scale(0.996264009963)" xlink:href="#CMR17-48"/>
      </g>
     </g>
    </g>
    <g id="ytick_2">
     <g id="line2d_12">
      <g>
       <use style="stroke:#000000;stroke-width:0.5;" x="90.0" xlink:href="#mc25fa1a484" y="254.652631579"/>
      </g>
     </g>
     <g id="line2d_13">
      <g>
       <use style="stroke:#000000;stroke-width:0.5;" x="648.0" xlink:href="#m1d385304ba" y="254.652631579"/>
      </g>
     </g>
     <g id="text_7">
      <!-- $-0.5$ -->
      <defs>
       <path d="M 11.40625 57.6875 
C 12.40625 57.28125 16.5 56 20.703125 56 
C 30 56 35.09375 61.015625 38 63.921875 
C 38 64.734375 38 65.25 37.40625 65.25 
C 37.296875 65.25 37.09375 65.25 36.296875 64.828125 
C 32.796875 63.3125 28.703125 62.078125 23.703125 62.078125 
C 20.703125 62.078125 16.203125 62.5 11.296875 64.734375 
C 10.203125 65.25 10 65.25 9.90625 65.25 
C 9.40625 65.25 9.296875 65.140625 9.296875 63.15625 
L 9.296875 34.28125 
C 9.296875 32.5 9.296875 32 10.296875 32 
C 10.796875 32 11 32.203125 11.5 32.90625 
C 14.703125 37.484375 19.09375 39.40625 24.09375 39.40625 
C 27.59375 39.40625 35.09375 37.21875 35.09375 20.140625 
C 35.09375 16.953125 35.09375 11.171875 32.09375 6.578125 
C 29.59375 2.484375 25.703125 0.390625 21.40625 0.390625 
C 14.796875 0.390625 8.09375 5 6.296875 12.71875 
C 6.703125 12.609375 7.5 12.421875 7.90625 12.421875 
C 9.203125 12.421875 11.703125 13.125 11.703125 16.21875 
C 11.703125 18.90625 9.796875 20 7.90625 20 
C 5.59375 20 4.09375 18.59375 4.09375 15.796875 
C 4.09375 7.09375 11 -2 21.59375 -2 
C 31.90625 -2 41.703125 6.875 41.703125 19.75 
C 41.703125 31.71875 33.90625 41 24.203125 41 
C 19.09375 41 14.796875 39.09375 11.40625 35.453125 
z
" id="CMR17-53"/>
      </defs>
      <g transform="translate(27.2103294287 262.117132377)scale(0.3 -0.3)">
       <use transform="scale(0.996264009963)" xlink:href="#CMSY10-0"/>
       <use transform="translate(77.4874676506 0.0)scale(0.996264009963)" xlink:href="#CMR17-48"/>
       <use transform="translate(123.177944768 0.0)scale(0.996264009963)" xlink:href="#CMMI12-58"/>
       <use transform="translate(150.275121857 0.0)scale(0.996264009963)" xlink:href="#CMR17-53"/>
      </g>
     </g>
    </g>
    <g id="ytick_3">
     <g id="line2d_14">
      <g>
       <use style="stroke:#000000;stroke-width:0.5;" x="90.0" xlink:href="#mc25fa1a484" y="166.547368421"/>
      </g>
     </g>
     <g id="line2d_15">
      <g>
       <use style="stroke:#000000;stroke-width:0.5;" x="648.0" xlink:href="#m1d385304ba" y="166.547368421"/>
      </g>
     </g>
     <g id="text_8">
      <!-- $0.0$ -->
      <g transform="translate(50.4565606028 174.011869219)scale(0.3 -0.3)">
       <use transform="scale(0.996264009963)" xlink:href="#CMR17-48"/>
       <use transform="translate(45.6904771171 0.0)scale(0.996264009963)" xlink:href="#CMMI12-58"/>
       <use transform="translate(72.7876542069 0.0)scale(0.996264009963)" xlink:href="#CMR17-48"/>
      </g>
     </g>
    </g>
    <g id="ytick_4">
     <g id="line2d_16">
      <g>
       <use style="stroke:#000000;stroke-width:0.5;" x="90.0" xlink:href="#mc25fa1a484" y="78.4421052632"/>
      </g>
     </g>
     <g id="line2d_17">
      <g>
       <use style="stroke:#000000;stroke-width:0.5;" x="648.0" xlink:href="#m1d385304ba" y="78.4421052632"/>
      </g>
     </g>
     <g id="text_9">
      <!-- $0.5$ -->
      <g transform="translate(50.4565606028 85.9066060609)scale(0.3 -0.3)">
       <use transform="scale(0.996264009963)" xlink:href="#CMR17-48"/>
       <use transform="translate(45.6904771171 0.0)scale(0.996264009963)" xlink:href="#CMMI12-58"/>
       <use transform="translate(72.7876542069 0.0)scale(0.996264009963)" xlink:href="#CMR17-53"/>
      </g>
     </g>
    </g>
    <g id="text_10">
     <!-- $U / \epsilon_{\rm nc}$ -->
     <defs>
      <path d="M 42.90625 71.296875 
C 42.90625 71.40625 43.5 72.90625 43.5 73.09375 
C 43.5 74.296875 42.5 75 41.703125 75 
C 41.203125 75 40.296875 75 39.5 72.796875 
L 6 -21.296875 
C 6 -21.40625 5.40625 -22.890625 5.40625 -23.09375 
C 5.40625 -24.296875 6.40625 -25 7.203125 -25 
C 7.796875 -25 8.703125 -24.890625 9.40625 -22.796875 
z
" id="CMMI12-61"/>
      <path d="M 50.59375 23.03125 
C 47.09375 9.078125 35.5 0.890625 26.09375 0.890625 
C 18.90625 0.890625 14 5.671875 14 13.921875 
C 14 14.3125 14 17.296875 15.09375 21.671875 
L 24.90625 60.734375 
C 25.796875 64.109375 26 65.109375 33.09375 65.109375 
C 34.90625 65.109375 35.90625 65.109375 35.90625 66.90625 
C 35.90625 68 35 68 34.40625 68 
C 32.59375 68 30.5 68 28.59375 68 
L 16.796875 68 
C 14.90625 68 12.796875 68 10.90625 68 
C 10.203125 68 9 68 9 66.109375 
C 9 65.109375 9.703125 65.109375 11.59375 65.109375 
C 17.59375 65.109375 17.59375 64.3125 17.59375 63.203125 
C 17.59375 62.625 16.90625 59.734375 16.40625 58.046875 
L 7.703125 23.25 
C 7.40625 22.15625 6.796875 19.46875 6.796875 16.796875 
C 6.796875 5.84375 14.703125 -2 25.59375 -2 
C 35.703125 -2 46.90625 6 52 18.703125 
C 52.703125 20.390625 53.59375 23.90625 54.203125 26.59375 
C 55.203125 30.203125 57.296875 39 58 41.59375 
L 61.796875 56.609375 
C 63.09375 61.8125 63.90625 65.109375 72.703125 65.109375 
C 73.5 65.203125 73.90625 66 73.90625 66.90625 
C 73.90625 68 73 68 72.59375 68 
C 71.203125 68 69.40625 68 68 68 
L 63.296875 68 
C 57.09375 68 53.90625 68 53.796875 68 
C 53.203125 68 52 68 52 66.109375 
C 52 65.109375 52.796875 65.109375 53.5 65.109375 
C 59.5 65.109375 59.90625 62.8125 59.90625 61.015625 
C 59.90625 60.125 59.90625 59.8125 59.5 58.421875 
z
" id="CMMI12-85"/>
      <path d="M 34.90625 35 
C 33 35 30.203125 35 30.203125 31.515625 
C 30.203125 28.71875 32.5 27.921875 33.796875 27.921875 
C 34.5 27.921875 37.40625 28.234375 37.40625 31.625 
C 37.40625 38.546875 30.59375 43.796875 22.90625 43.796875 
C 12.296875 43.796875 3.296875 34.03125 3.296875 21.296875 
C 3.296875 8.0625 12.703125 -1 22.90625 -1 
C 35.296875 -1 38.40625 10.59375 38.40625 11.6875 
C 38.40625 12.09375 38.296875 12.390625 37.59375 12.390625 
C 36.90625 12.390625 36.796875 12.296875 36.40625 10.984375 
C 33.796875 2.8125 28.09375 0.796875 23.796875 0.796875 
C 17.40625 0.796875 9.703125 6.671875 9.703125 21.390625 
C 9.703125 36.53125 17.09375 42 23 42 
C 26.90625 42 32.703125 40.203125 34.90625 35 
" id="CMR17-99"/>
      <path d="M 29.09375 22.859375 
C 30.59375 22.859375 32.296875 22.859375 32.296875 24.453125 
C 32.296875 25.75 31.296875 25.75 29.5 25.75 
L 13.296875 25.75 
C 15.796875 34.765625 21.703125 40.203125 30.59375 40.203125 
L 33.5 40.203125 
C 35.203125 40.203125 36.703125 40.203125 36.703125 41.796875 
C 36.703125 43.09375 35.59375 43.09375 33.796875 43.09375 
L 30.40625 43.09375 
C 18.09375 43.09375 4.59375 33.296875 4.59375 17.59375 
C 4.59375 6.5 12.09375 -1 22 -1 
C 28.40625 -1 34.703125 3.015625 34.703125 4.03125 
C 34.703125 4.625 34.40625 5.234375 33.796875 5.234375 
C 33.5 5.234375 33.296875 5.125 32.796875 4.734375 
C 29 2.21875 25.296875 1 22.296875 1 
C 17 1 11.40625 4.53125 11.40625 14.296875 
C 11.40625 16.203125 11.59375 18.828125 12.5 22.859375 
z
" id="CMMI12-15"/>
     </defs>
     <g transform="translate(12.873592315 259.741312121)rotate(-90.0)scale(0.44 -0.44)">
      <use transform="translate(0.0 14.9439145441)scale(0.996264009963)" xlink:href="#CMMI12-85"/>
      <use transform="translate(71.2393374698 14.9439145441)scale(0.996264009963)" xlink:href="#CMMI12-61"/>
      <use transform="translate(120.014256232 14.9439145441)scale(0.996264009963)" xlink:href="#CMMI12-15"/>
      <use transform="translate(159.403214508 0.0)scale(0.697381766617)" xlink:href="#CMR17-110"/>
      <use transform="translate(195.029822857 0.0)scale(0.697381766617)" xlink:href="#CMR17-99"/>
     </g>
    </g>
   </g>
   <g id="legend_1">
    <g id="patch_7">
     <path d="M 301.884171 377.975907 
L 648.155829 377.975907 
L 648.155829 315.9828 
L 301.884171 315.9828 
z
" style="fill:#ffffff;stroke:#000000;stroke-linejoin:miter;stroke-width:3.0;"/>
    </g>
    <g id="line2d_18">
     <path d="M 327.084171 343.336753 
L 377.484171 343.336753 
" style="fill:none;stroke:#000000;stroke-linecap:square;stroke-width:3.0;"/>
    </g>
    <g id="line2d_19"/>
    <g id="text_11">
     <!-- $\epsilon_{\rm nc} U_{\rm nc} + \epsilon_{\rm db} U_{\rm db}$ -->
     <defs>
      <path d="M 37.703125 23.515625 
L 64.203125 23.515625 
C 65.59375 23.515625 67.296875 23.515625 67.296875 25.203125 
C 67.296875 27 65.703125 27 64.203125 27 
L 37.703125 27 
L 37.703125 53.328125 
C 37.703125 54.71875 37.703125 56.421875 36 56.421875 
C 34.203125 56.421875 34.203125 54.828125 34.203125 53.328125 
L 34.203125 27 
L 7.703125 27 
C 6.296875 27 4.59375 27 4.59375 25.3125 
C 4.59375 23.515625 6.203125 23.515625 7.703125 23.515625 
L 34.203125 23.515625 
L 34.203125 -2.90625 
C 34.203125 -4.296875 34.203125 -6 35.90625 -6 
C 37.703125 -6 37.703125 -4.40625 37.703125 -2.90625 
z
" id="CMR17-43"/>
      <path d="M 15 68.6875 
L 3.09375 67.59375 
L 3.09375 65 
C 9 65 9.90625 64.40625 9.90625 59.640625 
L 9.90625 -0.203125 
L 11.703125 -0.203125 
L 14.59375 6.890625 
C 17.5 2.203125 21.796875 -1 27.59375 -1 
C 37.59375 -1 47.703125 7.8125 47.703125 21.40625 
C 47.703125 34.1875 38.703125 43.59375 28.59375 43.59375 
C 22.40625 43.59375 18 40.296875 15 36.40625 
z
M 15.203125 31.3125 
C 15.203125 33.09375 15.203125 33.40625 16.59375 35.5 
C 20.5 41.515625 26.09375 42 28 42 
C 31 42 41.296875 40.390625 41.296875 21.5 
C 41.296875 1.6875 29.5 0.59375 27.09375 0.59375 
C 24 0.59375 19.5 1.78125 16.296875 7.59375 
C 15.203125 9.5 15.203125 9.703125 15.203125 11.484375 
z
" id="CMR17-98"/>
      <path d="M 29.203125 67.59375 
L 29.203125 65 
C 35.09375 65 36 64.40625 36 59.6875 
L 36 36.640625 
C 35.59375 37.140625 31.5 43.59375 23.40625 43.59375 
C 13.203125 43.59375 3.296875 34.5 3.296875 21.3125 
C 3.296875 8.203125 12.59375 -1 22.40625 -1 
C 30.90625 -1 35.296875 5.265625 35.796875 5.9375 
L 35.796875 -0.984375 
L 47.90625 -0.984375 
L 47.90625 2 
C 42 2 41.09375 2.59375 41.09375 7.390625 
L 41.09375 68.6875 
z
M 35.796875 11.796875 
C 35.796875 8.796875 34 6.09375 31.703125 4.09375 
C 28.296875 1.09375 24.90625 0.59375 23 0.59375 
C 20.09375 0.59375 9.703125 2.09375 9.703125 21.1875 
C 9.703125 40.8125 21.296875 42 23.90625 42 
C 28.5 42 32.203125 39.40625 34.5 35.796875 
C 35.796875 33.703125 35.796875 33.40625 35.796875 31.609375 
z
" id="CMR17-100"/>
     </defs>
     <g transform="translate(417.084171041 355.93675295)scale(0.36 -0.36)">
      <use transform="translate(0.0 14.9439145441)scale(0.996264009963)" xlink:href="#CMMI12-15"/>
      <use transform="translate(39.3889582766 0.0)scale(0.697381766617)" xlink:href="#CMR17-110"/>
      <use transform="translate(75.0155666252 0.0)scale(0.697381766617)" xlink:href="#CMR17-99"/>
      <use transform="translate(103.853530219 14.9439145441)scale(0.996264009963)" xlink:href="#CMMI12-85"/>
      <use transform="translate(170.105649347 0.0)scale(0.697381766617)" xlink:href="#CMR17-110"/>
      <use transform="translate(205.732257696 0.0)scale(0.697381766617)" xlink:href="#CMR17-99"/>
      <use transform="translate(256.709428267 14.9439145441)scale(0.996264009963)" xlink:href="#CMR17-43"/>
      <use transform="translate(350.56342366 14.9439145441)scale(0.996264009963)" xlink:href="#CMMI12-15"/>
      <use transform="translate(389.952381937 0.0)scale(0.697381766617)" xlink:href="#CMR17-100"/>
      <use transform="translate(425.578990285 0.0)scale(0.697381766617)" xlink:href="#CMR17-98"/>
      <use transform="translate(461.703730639 14.9439145441)scale(0.996264009963)" xlink:href="#CMMI12-85"/>
      <use transform="translate(527.955849767 0.0)scale(0.697381766617)" xlink:href="#CMR17-100"/>
      <use transform="translate(563.582458116 0.0)scale(0.697381766617)" xlink:href="#CMR17-98"/>
     </g>
    </g>
   </g>
  </g>
 </g>
 <defs>
  <clipPath id="p87fcbb5203">
   <rect height="334.8" width="558.0" x="90.0" y="43.2"/>
  </clipPath>
 </defs>
</svg>
